<?xml version="1.0" encoding="UTF-8" standalone="no"?>
<!-- Generator: Adobe Illustrator 27.1.1, SVG Export Plug-In . SVG Version: 6.00 Build 0)  -->

<svg
   version="1.1"
   id="Layer_1"
   x="0px"
   y="0px"
   viewBox="0 0 560.3 712.5"
   style="enable-background:new 0 0 560.3 712.5;"
   xml:space="preserve"
   sodipodi:docname="LOGO_Frenchi_InkScape.svg"
   inkscape:version="1.2.2 (732a01da63, 2022-12-09)"
   xmlns:inkscape="http://www.inkscape.org/namespaces/inkscape"
   xmlns:sodipodi="http://sodipodi.sourceforge.net/DTD/sodipodi-0.dtd"
   xmlns:xlink="http://www.w3.org/1999/xlink"
   xmlns="http://www.w3.org/2000/svg"
   xmlns:svg="http://www.w3.org/2000/svg"><defs
   id="defs15" /><sodipodi:namedview
   id="namedview13"
   pagecolor="#505050"
   bordercolor="#ffffff"
   borderopacity="1"
   inkscape:showpageshadow="0"
   inkscape:pageopacity="0"
   inkscape:pagecheckerboard="1"
   inkscape:deskcolor="#505050"
   showgrid="false"
   inkscape:zoom="1.4414035"
   inkscape:cx="280.62926"
   inkscape:cy="355.90312"
   inkscape:window-width="2560"
   inkscape:window-height="1377"
   inkscape:window-x="-8"
   inkscape:window-y="-8"
   inkscape:window-maximized="1"
   inkscape:current-layer="Layer_1" />
<style
   type="text/css"
   id="style2">
	.st0{stroke:#000000;stroke-miterlimit:10;}
</style>
<image
   style="display:none;overflow:visible;"
   width="499"
   height="452"
   xlink:href="ScreenShot/2023-02-13%2022_50_35-French%20Bulldog%20Icon%20Logo.png"
   transform="matrix(1.4469 0 0 1.4469 93.5277 5.5)"
   id="image4">
</image>
<path
   class="st0"
   d="M7.2,657c-17.8-52,3-105.5,25.3-158.9c22.3-53.5,66.8-96.6,106.9-130.7s90.6-56.4,123.3-80.2  s34.6-37.9,35.6-60.9c1.5-34.2,0-56.4,4.5-56.4s37.1,7.4,37.1,7.4s-23.8-11.4-56.4-38.6c-26.7-22.3-28.2-41.6-34.2-55  c-26.7-28.2-38.3-45.3-34.2-50.5c5.9-7.4,40.1,4.5,55,10.4C285,49.5,299.8,54,308.8,54c8.9,0,30.6-13.4,39.8-20.8  c9.2-7.4,28.5-22.3,40.4-26.7s20.8-5.9,28.2-5.9c7.4,0,22.3,3,31.2,8.9c8.9,5.9,19.3,11.9,19.3,11.9s8.9-4.5,16.3-8.9  c7.4-4.5,7.4-4.5,14.9-5.9s14.9,8.9,25.3,16.3s14.9,4.5,20.8,11.9c5.9,7.4,14.9,32.7,14.9,47.5s-1.5,16.3-5.9,26.7  s-19.3,23.8-28.2,37.1c-8.9,13.4-20.8,32.7-29.7,52c-8.9,19.3-14.9,38.6-17.8,71.3s1.5,84.7,3,123.3s4.5,41.6,1.5,69.8  c-3,28.2-10.9,38.3-22.3,55c-19.3,28.2-56.4,40.1-56.4,40.1l1.5-55c0,0-5.7,11.9-11.9,38.6c-4.5,19.3-5.9,29.7-5.9,41.6  c0,20.8,1.5,75.8,5.9,80.2c4.5,4.5,25.3,8.9,34.2,17.8c8.9,8.9,7.4,31.2,7.4,31.2h-87.6c0,0-16.3-44.6-28.2-120.3  c-4.4-28.2-11.9-93.6-11.9-93.6s-7.4,46-7.4,68.3c0,22.3,4.5,35.6,0,52c-4.5,16.3-20.8,20.8-34.2,26.7  c-13.4,5.9-57.9,14.9-57.9,14.9s5.9-13.4,5.9-20.8s-3-19.3-3-19.3s-1.5,22.3-17.8,37.1s-32.7,19.3-32.7,19.3s40.1,1.5,55,0  c14.9-1.5,26.7-7.4,40.1-5.9c13.4,1.5,17.8,4.5,22.3,11.9c4.5,7.4,4.5,29.7,4.5,29.7H53.3c0,0-4.5-3-13.4-19.3  c-8.9-16.3-4.5-59.4-4.5-59.4s-4.5-1.5-14.9,7.4C10.2,649.6,7.2,657,7.2,657z"
   id="path6" />
<path
   class="st0"
   d="M454.3,545.6c0,0-4.5,31.2-5.9,47.5c-1.5,16.3,0,33.8,1.5,44.6c1.5,10.8,3,28.2,7.4,29.7  c7.6,2.5,14.9,3,25.3,10.4c9.7,7,11.9,11.9,13.4,19.3c0.9,4.6,0,14.9,0,14.9h-46c0,0-0.4-19.5-3-29.7c-1.5-5.9-12.5-13.1-20.8-17.8  c-10.4-5.9-19.3-10.4-19.3-10.4s-7.4-2.9-7.4-34.2c0-19.3,3-44.6,3-44.6s13.4-5.9,26.7-13.4C442.4,554.5,454.3,545.6,454.3,545.6z"
   id="path8" />
<path
   class="st0"
   d="M301.3,13.9c0,0,32.7,6.2,35.6,11.9c4.1,8-22.3,16.3-32.7,16.3c-17.8,0-46-23.8-38.6-29.7  C273.1,6.4,301.3,13.9,301.3,13.9"
   id="path10" />
</svg>
